<svg xmlns="http://www.w3.org/2000/svg" xmlns:xlink="http://www.w3.org/1999/xlink" width="1080" zoomAndPan="magnify" viewBox="0 0 810 1439.999935" height="1920" preserveAspectRatio="none" version="1.0"><defs><clipPath id="cf67ac4a62"><path d="M 81 643.714844 L 737 643.714844 L 737 993.433594 L 81 993.433594 Z M 81 643.714844 " clip-rule="nonzero"/></clipPath><clipPath id="3ccc3edd5d"><path d="M 118.878906 643.714844 L 699.074219 643.714844 C 719.996094 643.714844 736.957031 660.675781 736.957031 681.597656 L 736.957031 955.554688 C 736.957031 976.472656 719.996094 993.433594 699.074219 993.433594 L 118.878906 993.433594 C 97.960938 993.433594 81 976.472656 81 955.554688 L 81 681.597656 C 81 660.675781 97.960938 643.714844 118.878906 643.714844 Z M 118.878906 643.714844 " clip-rule="nonzero"/></clipPath><clipPath id="78aa88b42c"><path d="M 0 0.714844 L 656 0.714844 L 656 350.433594 L 0 350.433594 Z M 0 0.714844 " clip-rule="nonzero"/></clipPath><clipPath id="ea906cf873"><path d="M 37.878906 0.714844 L 618.074219 0.714844 C 638.996094 0.714844 655.957031 17.675781 655.957031 38.597656 L 655.957031 312.554688 C 655.957031 333.472656 638.996094 350.433594 618.074219 350.433594 L 37.878906 350.433594 C 16.960938 350.433594 0 333.472656 0 312.554688 L 0 38.597656 C 0 17.675781 16.960938 0.714844 37.878906 0.714844 Z M 37.878906 0.714844 " clip-rule="nonzero"/></clipPath><clipPath id="dfba65f788"><rect x="0" width="656" y="0" height="351"/></clipPath><clipPath id="e957bf032e"><path d="M 81 643.714844 L 737 643.714844 L 737 993.214844 L 81 993.214844 Z M 81 643.714844 " clip-rule="nonzero"/></clipPath><clipPath id="552e86de08"><path d="M 118.878906 643.714844 L 699.066406 643.714844 C 719.984375 643.714844 736.945312 660.675781 736.945312 681.597656 L 736.945312 955.546875 C 736.945312 976.46875 719.984375 993.425781 699.066406 993.425781 L 118.878906 993.425781 C 97.960938 993.425781 81 976.46875 81 955.546875 L 81 681.597656 C 81 660.675781 97.960938 643.714844 118.878906 643.714844 Z M 118.878906 643.714844 " clip-rule="nonzero"/></clipPath></defs><g clip-path="url(#cf67ac4a62)"><g clip-path="url(#3ccc3edd5d)"><g transform="matrix(1, 0, 0, 1, 81, 643)"><g clip-path="url(#dfba65f788)"><g clip-path="url(#78aa88b42c)"><g clip-path="url(#ea906cf873)"><path fill="#1050a9" d="M 0 0.714844 L 655.71875 0.714844 L 655.71875 350.433594 L 0 350.433594 Z M 0 0.714844 " fill-opacity="1" fill-rule="nonzero"/></g></g></g></g></g></g><g clip-path="url(#e957bf032e)"><g clip-path="url(#552e86de08)"><path fill="#ffffff" d="M 150.378906 639.214844 L 177.378906 639.214844 L 177.378906 648.214844 L 150.378906 648.214844 Z M 181.878906 639.214844 L 208.878906 639.214844 L 208.878906 648.214844 L 181.878906 648.214844 Z M 213.378906 639.214844 L 240.378906 639.214844 L 240.378906 648.214844 L 213.378906 648.214844 Z M 244.878906 639.214844 L 271.878906 639.214844 L 271.878906 648.214844 L 244.878906 648.214844 Z M 276.378906 639.214844 L 303.378906 639.214844 L 303.378906 648.214844 L 276.378906 648.214844 Z M 307.878906 639.214844 L 334.878906 639.214844 L 334.878906 648.214844 L 307.878906 648.214844 Z M 339.378906 639.214844 L 366.378906 639.214844 L 366.378906 648.214844 L 339.378906 648.214844 Z M 370.878906 639.214844 L 397.878906 639.214844 L 397.878906 648.214844 L 370.878906 648.214844 Z M 402.378906 639.214844 L 429.378906 639.214844 L 429.378906 648.214844 L 402.378906 648.214844 Z M 433.878906 639.214844 L 460.878906 639.214844 L 460.878906 648.214844 L 433.878906 648.214844 Z M 465.378906 639.214844 L 492.378906 639.214844 L 492.378906 648.214844 L 465.378906 648.214844 Z M 496.878906 639.214844 L 523.878906 639.214844 L 523.878906 648.214844 L 496.878906 648.214844 Z M 528.378906 639.214844 L 555.378906 639.214844 L 555.378906 648.214844 L 528.378906 648.214844 Z M 559.878906 639.214844 L 586.878906 639.214844 L 586.878906 648.214844 L 559.878906 648.214844 Z M 591.378906 639.214844 L 618.378906 639.214844 L 618.378906 648.214844 L 591.378906 648.214844 Z M 622.878906 639.214844 L 649.878906 639.214844 L 649.878906 648.214844 L 622.878906 648.214844 Z M 654.378906 639.214844 L 681.378906 639.214844 L 681.378906 648.214844 L 654.378906 648.214844 Z M 685.878906 639.214844 L 699.066406 639.214844 C 704.308594 639.214844 709.359375 640.148438 714.21875 642.007812 L 711 650.410156 C 707.179688 648.949219 703.199219 648.214844 699.066406 648.214844 L 685.878906 648.214844 Z M 718.808594 644.089844 C 728.128906 649.003906 734.703125 656.355469 738.539062 666.144531 L 730.160156 669.429688 C 727.136719 661.714844 721.957031 655.921875 714.613281 652.050781 Z M 740.09375 670.933594 C 740.996094 674.417969 741.445312 677.96875 741.445312 681.597656 L 741.445312 698.996094 L 732.445312 698.996094 L 732.445312 681.597656 C 732.445312 678.734375 732.089844 675.933594 731.378906 673.195312 Z M 741.445312 703.496094 L 741.445312 730.496094 L 732.445312 730.496094 L 732.445312 703.496094 Z M 741.445312 734.996094 L 741.445312 761.996094 L 732.445312 761.996094 L 732.445312 734.996094 Z M 741.445312 766.496094 L 741.445312 793.496094 L 732.445312 793.496094 L 732.445312 766.496094 Z M 741.445312 797.996094 L 741.445312 824.996094 L 732.445312 824.996094 L 732.445312 797.996094 Z M 741.445312 829.496094 L 741.445312 856.496094 L 732.445312 856.496094 L 732.445312 829.496094 Z M 741.445312 860.996094 L 741.445312 887.996094 L 732.445312 887.996094 L 732.445312 860.996094 Z M 741.445312 892.496094 L 741.445312 919.496094 L 732.445312 919.496094 L 732.445312 892.496094 Z M 741.445312 923.996094 L 741.445312 950.996094 L 732.445312 950.996094 L 732.445312 923.996094 Z M 741.445312 955.496094 L 741.445312 955.546875 C 741.445312 966.070312 738.007812 975.304688 731.132812 983.253906 L 724.328125 977.367188 C 729.738281 971.109375 732.445312 963.835938 732.445312 955.546875 L 732.445312 955.496094 Z M 727.625 986.859375 C 719.84375 993.960938 710.691406 997.644531 700.164062 997.914062 L 699.9375 988.917969 C 708.222656 988.703125 715.429688 985.804688 721.558594 980.210938 Z M 695.53125 997.925781 L 668.53125 997.925781 L 668.53125 988.925781 L 695.53125 988.925781 Z M 664.03125 997.925781 L 637.03125 997.925781 L 637.03125 988.925781 L 664.03125 988.925781 Z M 632.53125 997.925781 L 605.53125 997.925781 L 605.53125 988.925781 L 632.53125 988.925781 Z M 601.03125 997.925781 L 574.03125 997.925781 L 574.03125 988.925781 L 601.03125 988.925781 Z M 569.53125 997.925781 L 542.53125 997.925781 L 542.53125 988.925781 L 569.53125 988.925781 Z M 538.03125 997.925781 L 511.03125 997.925781 L 511.03125 988.925781 L 538.03125 988.925781 Z M 506.53125 997.925781 L 479.53125 997.925781 L 479.53125 988.925781 L 506.53125 988.925781 Z M 475.03125 997.925781 L 448.03125 997.925781 L 448.03125 988.925781 L 475.03125 988.925781 Z M 443.53125 997.925781 L 416.53125 997.925781 L 416.53125 988.925781 L 443.53125 988.925781 Z M 412.03125 997.925781 L 385.03125 997.925781 L 385.03125 988.925781 L 412.03125 988.925781 Z M 380.53125 997.925781 L 353.53125 997.925781 L 353.53125 988.925781 L 380.53125 988.925781 Z M 349.03125 997.925781 L 322.03125 997.925781 L 322.03125 988.925781 L 349.03125 988.925781 Z M 317.53125 997.925781 L 290.53125 997.925781 L 290.53125 988.925781 L 317.53125 988.925781 Z M 286.03125 997.925781 L 259.03125 997.925781 L 259.03125 988.925781 L 286.03125 988.925781 Z M 254.53125 997.925781 L 227.53125 997.925781 L 227.53125 988.925781 L 254.53125 988.925781 Z M 223.03125 997.925781 L 196.03125 997.925781 L 196.03125 988.925781 L 223.03125 988.925781 Z M 191.53125 997.925781 L 164.53125 997.925781 L 164.53125 988.925781 L 191.53125 988.925781 Z M 160.03125 997.925781 L 133.03125 997.925781 L 133.03125 988.925781 L 160.03125 988.925781 Z M 128.53125 997.925781 L 118.878906 997.925781 C 112.257812 997.925781 105.996094 996.46875 100.101562 993.550781 L 104.09375 985.484375 C 108.730469 987.78125 113.660156 988.925781 118.878906 988.925781 L 128.53125 988.925781 Z M 95.730469 991.050781 C 86.898438 985.285156 81.035156 977.351562 78.140625 967.257812 L 86.789062 964.773438 C 89.070312 972.722656 93.691406 978.96875 100.652344 983.515625 Z M 77.042969 962.335938 C 76.679688 960.097656 76.5 957.835938 76.5 955.546875 L 76.5 934.613281 L 85.5 934.613281 L 85.5 955.546875 C 85.5 957.355469 85.640625 959.140625 85.925781 960.90625 Z M 76.5 930.113281 L 76.5 903.113281 L 85.5 903.113281 L 85.5 930.113281 Z M 76.5 898.613281 L 76.5 871.613281 L 85.5 871.613281 L 85.5 898.613281 Z M 76.5 867.113281 L 76.5 840.113281 L 85.5 840.113281 L 85.5 867.113281 Z M 76.5 835.613281 L 76.5 808.613281 L 85.5 808.613281 L 85.5 835.613281 Z M 76.5 804.113281 L 76.5 777.113281 L 85.5 777.113281 L 85.5 804.113281 Z M 76.5 772.613281 L 76.5 745.613281 L 85.5 745.613281 L 85.5 772.613281 Z M 76.5 741.113281 L 76.5 714.113281 L 85.5 714.113281 L 85.5 741.113281 Z M 76.5 709.613281 L 76.5 682.613281 L 85.5 682.613281 L 85.5 709.613281 Z M 76.679688 677.664062 C 77.644531 667.203125 81.929688 658.324219 89.53125 651.023438 L 95.765625 657.515625 C 89.773438 663.265625 86.402344 670.257812 85.640625 678.488281 Z M 93.363281 647.757812 C 100.902344 642.0625 109.40625 639.214844 118.878906 639.214844 L 145.878906 639.214844 L 145.878906 648.214844 L 118.878906 648.214844 C 111.417969 648.214844 104.722656 650.457031 98.785156 654.9375 Z M 93.363281 647.757812 " fill-opacity="1" fill-rule="nonzero"/></g></g></svg>