<svg xmlns="http://www.w3.org/2000/svg" xmlns:xlink="http://www.w3.org/1999/xlink" width="1080" zoomAndPan="magnify" viewBox="0 0 810 1439.999935" height="1920" preserveAspectRatio="none" version="1.0"><defs><clipPath id="037fdc90ff"><path d="M 156.167969 845.8125 L 207.167969 845.8125 L 207.167969 915.5625 L 156.167969 915.5625 Z M 156.167969 845.8125 " clip-rule="nonzero"/></clipPath></defs><g clip-path="url(#037fdc90ff)"><path fill="#000000" d="M 204.609375 874.089844 L 201.085938 874.089844 L 201.085938 865.441406 C 201.101562 854.617188 192.382812 845.8125 181.660156 845.8125 C 170.9375 845.8125 162.21875 854.617188 162.21875 865.441406 L 162.21875 874.089844 L 158.710938 874.089844 C 157.316406 874.089844 156.183594 875.234375 156.183594 876.644531 L 156.183594 913.023438 C 156.183594 914.417969 157.316406 915.5625 158.710938 915.5625 L 204.621094 915.5625 C 206.019531 915.5625 207.152344 914.417969 207.152344 913.011719 L 207.152344 876.644531 C 207.136719 875.234375 206.003906 874.089844 204.609375 874.089844 Z M 167.277344 865.441406 C 167.277344 857.433594 173.730469 850.917969 181.660156 850.917969 C 189.589844 850.917969 196.042969 857.433594 196.042969 865.441406 L 196.042969 874.089844 L 167.277344 874.089844 Z M 184.1875 896.660156 L 184.1875 903.371094 C 184.1875 904.78125 183.054688 905.925781 181.660156 905.925781 C 180.265625 905.925781 179.132812 904.78125 179.132812 903.371094 L 179.132812 896.660156 C 177.390625 895.742188 176.203125 893.898438 176.203125 891.792969 C 176.203125 888.75 178.648438 886.296875 181.644531 886.296875 C 184.65625 886.296875 187.089844 888.765625 187.089844 891.792969 C 187.117188 893.898438 185.929688 895.742188 184.1875 896.660156 Z M 184.1875 896.660156 " fill-opacity="1" fill-rule="nonzero"/></g></svg>