<svg xmlns="http://www.w3.org/2000/svg" xmlns:xlink="http://www.w3.org/1999/xlink" width="1080" zoomAndPan="magnify" viewBox="0 0 810 1439.999935" height="1920" preserveAspectRatio="none" version="1.0"><defs><clipPath id="8169074be0"><path d="M 146.839844 726.976562 L 216.589844 726.976562 L 216.589844 796.726562 L 146.839844 796.726562 Z M 146.839844 726.976562 " clip-rule="nonzero"/></clipPath></defs><g clip-path="url(#8169074be0)"><path fill="#000000" d="M 215.460938 796.722656 L 147.976562 796.722656 C 147.363281 796.722656 146.871094 796.226562 146.871094 795.617188 L 146.871094 789.3125 C 146.871094 778.824219 155.402344 770.292969 165.890625 770.292969 L 197.542969 770.292969 C 208.03125 770.292969 216.566406 778.824219 216.566406 789.3125 L 216.566406 795.617188 C 216.566406 796.226562 216.070312 796.722656 215.460938 796.722656 Z M 181.71875 767.316406 C 170.597656 767.316406 161.546875 758.269531 161.546875 747.148438 C 161.546875 736.027344 170.597656 726.976562 181.71875 726.976562 C 192.839844 726.976562 201.886719 736.027344 201.886719 747.148438 C 201.886719 758.269531 192.839844 767.316406 181.71875 767.316406 Z M 181.71875 767.316406 " fill-opacity="1" fill-rule="nonzero"/></g></svg>